<?xml version="1.0" encoding="UTF-8"?>
<svg id="Layer_1" xmlns="http://www.w3.org/2000/svg" version="1.1" viewBox="0 0 100 100">
  <!-- Generator: Adobe Illustrator 29.1.0, SVG Export Plug-In . SVG Version: 2.1.0 Build 142)  -->
  <rect width="100" height="100" rx="20" ry="20" fill="#0a0a0a"/>
  <path d="M32.4,84.1v-9.2c4.8-1,9.1-3.7,12.9-6.7,1.5-1.2,2.8-2.6,4.2-3.8.2-.2.3-.5.7-.4-4,5.7-9.5,10.2-16.2,12.2.3,2.2-.7,7.6.6,9.2,1.4,1.7,6.2.6,8.2.9.5-9.6,6.1-17.9,12.6-24.6l2.8,2.2,2-10.8h0s-10.5,2.8-10.5,2.8c0,.4,0,.4.2.7.3.3,2.2,1.6,2.2,1.9-4.5,5.4-10.3,9.8-17.4,10.9s-1.7.3-2.3,0v-18.2c.3-1.7.7-3.2,1.6-4.7,5.8-10.1,21-1.7,25.5-12.1,4.5-10.5-8.8-18.8-15.9-10.3-2.1,2.5-1.8,3.8-2.3,6.7-.9,5.1-7.8,4.7-8.8,0,0-.5,0-1,0-1.4,1.7-21.5,30-23,35.7-4.8.6,2,.9,4,.9,6.1-.1,18.2.3,36.5-.3,54.7-.1,2.6-.4,2.6-3.5,2.6h-28.8c-2.7,0-4-1.3-4-3.9h0ZM34,51v16.9c3.9-.3,7.9-2.3,11.1-4.6s4.4-3.7,4.5-4.3,0-.3,0-.5c-.2-.4-2.5-2-3.1-2.5s-.5-.2-.1-.5l15.4-4.2-2.3,16.2c-.4,0-.4-.1-.6-.3-1.1-.8-2.2-2.2-3.2-3.2-.3,0-2,2-2.3,2.3-4.6,5.5-8.6,12.6-8.8,20h21.3c1.4,0,1.6-1.6,1.6-2.5-.2-18,.3-36.1-.2-54.1-.2-7.5-5.3-14.1-12.7-15.8-6.9-1.6-14.6.9-18.4,8.3-1.5,2.9-4.4,12,1.9,10.6,1.9-.4,1.6-3.7,2-5.2,2-7.8,11.3-11.1,17.7-6.1,7,5.5,4.8,17.6-3.9,19.8-7,1.8-18.5-.5-19.7,9.7h0Z" fill="#00c9a7"/>
</svg>