<?xml version="1.0" encoding="UTF-8"?>
<svg id="Layer_1" xmlns="http://www.w3.org/2000/svg" version="1.1" viewBox="0 0 517.9 516.4">
  <!-- Generator: Adobe Illustrator 29.1.0, SVG Export Plug-In . SVG Version: 2.1.0 Build 142)  -->
  <polygon points="221.1 320.3 191.2 350.2 96.7 255.7 191.2 161.2 221.1 191.2 156.5 255.7 221.1 320.3" display="none" fill="#fff"/>
  <polygon points="272.6 350.2 242.7 320.3 307.3 255.7 242.7 191.2 272.6 161.2 367.1 255.7 272.6 350.2" display="none" fill="#fff"/>
  <g>
    <path d="M122.5,269.4h-21.5c-13.7,0-24.9-11.1-24.9-24.7s-3.4-7.5-7.5-7.5c-4.1,0-7.5,3.4-7.5,7.5h0c0,21.9,17.9,39.7,39.9,39.7h21.5c4.1,0,7.5-3.4,7.5-7.5s-3.4-7.5-7.5-7.5ZM193,324.9h-64.1c-21.2,0-38.4,17.1-38.4,38.2s3.4,7.5,7.5,7.5,7.5-3.4,7.5-7.5c0-12.8,10.5-23.2,23.4-23.2h64.1c4.1,0,7.5-3.4,7.5-7.5s-3.4-7.5-7.5-7.5ZM254.1,324.9h-31.1c-4.1,0-7.5,3.4-7.5,7.5s3.4,7.5,7.5,7.5h31.1c4.1,0,7.5-3.4,7.5-7.5s-3.4-7.5-7.5-7.5h0ZM201.3,179.2c-4.1,0-7.5,3.4-7.5,7.5h0c0,21.4-17.6,38.9-39.1,38.9s-7.5,3.4-7.5,7.5,3.4,7.5,7.5,7.5c29.8,0,54.1-24.2,54.1-53.9s-3.4-7.5-7.5-7.5h0ZM187.5,65.8c-17.9-1.2-33.4,12.4-34.6,30.3-.2,4.1,3,7.7,7.1,7.9,4.1.2,7.6-2.9,7.9-6.9.6-9.6,9-16.9,18.7-16.3,4.1.3,7.7-2.9,8-7,.3-4.1-2.9-7.7-7-8,0,0,0,0,0,0ZM162.3,358.3c-4.1,0-7.5,3.4-7.5,7.5s3.4,7.5,7.5,7.5c12.4,0,22.5,10,22.5,22.3s-10.1,22.3-22.5,22.3-7.5,3.4-7.5,7.5,3.4,7.5,7.5,7.5c20.7,0,37.5-16.7,37.5-37.3s-16.8-37.3-37.5-37.3ZM239.1,181.7c-4.1,0-7.5,3.4-7.5,7.5s3.4,7.5,7.5,7.5c9.9,0,18,8,18,17.9s-8.1,17.9-18,17.9-7.5,3.4-7.5,7.5,3.4,7.5,7.5,7.5c18.2,0,33-14.8,33-32.9s-14.8-32.9-33-32.9h0ZM106.9,134c-4.1,0-7.5,3.4-7.5,7.5s3.4,7.5,7.5,7.5c17.1,0,31,13.8,31,30.8s-13.9,30.8-31,30.8-7.5,3.4-7.5,7.5,3.4,7.5,7.5,7.5c25.4,0,46-20.6,46-45.8s-20.6-45.8-46-45.8ZM459.5,133.7c-14.1,0-25.6,11.4-25.6,25.5s11.5,25.5,25.6,25.5,25.6-11.4,25.6-25.5-11.5-25.5-25.6-25.5ZM459.5,169.6c-5.8,0-10.6-4.7-10.6-10.5,0-5.8,4.7-10.5,10.6-10.5s10.6,4.7,10.6,10.5-4.7,10.5-10.6,10.5ZM484.6,325.6c-14.1,0-25.6,11.4-25.6,25.5s11.5,25.5,25.6,25.5,25.6-11.4,25.6-25.5-11.5-25.5-25.6-25.5ZM484.6,361.6c-5.8,0-10.6-4.7-10.6-10.5s4.7-10.5,10.6-10.5,10.6,4.7,10.6,10.5c0,5.8-4.7,10.5-10.6,10.5ZM468.8,235.7c-4.2,0-8.3,1-12,3l-14.6-14.5c-3-2.9-7.7-2.8-10.6.1-2.8,2.9-2.8,7.6,0,10.5l14.6,14.5c-2,3.7-3,7.8-3,11.9,0,14,11.5,25.5,25.6,25.5s25.6-11.4,25.6-25.5-11.5-25.5-25.6-25.5h0ZM468.8,271.7c-5.8,0-10.6-4.7-10.6-10.5s4.7-10.5,10.6-10.5,10.6,4.7,10.6,10.5-4.7,10.5-10.6,10.5ZM451.9,403.9c-14.1,0-25.6,11.4-25.6,25.5s11.5,25.5,25.6,25.5,25.6-11.4,25.6-25.5-11.5-25.5-25.6-25.5ZM451.9,439.9c-5.8,0-10.6-4.7-10.6-10.5s4.7-10.5,10.6-10.5,10.6,4.7,10.6,10.5c0,5.8-4.7,10.5-10.6,10.5Z" fill="#00c9a7"/>
    <path d="M364.2,143.1c4.8,0,10.5-2.3,13.8-5.7l29-28.8c3,1.2,6.2,1.8,9.4,1.8,14.1,0,25.6-11.4,25.6-25.5s-11.5-25.5-25.6-25.5-25.6,11.4-25.6,25.5c0,5.1,1.5,10.1,4.4,14.3l-27.8,27.6c-.6.6-2.4,1.3-3.3,1.3h-61.9v-49.6h17.4c3.2,10.4,13,18,24.4,18s25.6-11.4,25.6-25.5-11.5-25.5-25.6-25.5-21.2,7.6-24.4,18h-17.4v-1.1c0-33.2-27.1-60.2-60.4-60.2s-45.2,13.9-54.9,35.1c-1.5-.1-3-.2-4.5-.2-34.6,0-62.9,27.6-63.7,61.9-3-.4-6-.6-9.1-.6-35.1,0-63.7,28.5-63.7,63.4s1.3,15.1,4,22.2c-26.2,15.6-42.2,43.4-42.2,74.1s4.7,32.6,13.6,46.5c7.3,11.4,17.2,20.9,28.9,27.8-2.8,7.3-4.2,15-4.3,22.8,0,15.4,5.6,30.3,15.9,41.9,2.7,3.1,7.5,3.4,10.6.7,3.1-2.7,3.4-7.5.7-10.6-7.8-8.8-12.1-20.2-12.1-32,0-7.9,1.9-15.5,5.6-22.5,4.5-8.5,11.4-15.5,19.9-20.1,3.6-2,5-6.5,3-10.2,0,0,0,0,0,0-2-3.6-6.5-5-10.2-3,0,0,0,0,0,0-8.8,4.8-16.3,11.5-22,19.7-21.4-12.9-34.5-35.7-34.5-61s15-51.3,39.2-63.6c0,0,14-7.8,32.6-7.8s7.5-3.4,7.5-7.5-3.4-7.5-7.5-7.5c-10.6,0-21.1,1.9-30.9,5.7-1.7-5-2.6-10.3-2.6-15.6,0-26.7,21.9-48.4,48.7-48.4s10,.8,14.8,2.3c3.9,1.3,8.2-.9,9.4-4.9.3-1.1.4-2.2.3-3.3-.3-2.3-.5-4.6-.5-6.9,0-26.7,21.9-48.4,48.7-48.4s5.3.2,8,.7c23.1,3.8,40.7,23.8,40.7,47.8s3.4,7.5,7.5,7.5,7.5-3.4,7.5-7.5c0-28.1-18.5-52-43.9-60.3,7.9-14.1,23-23.1,39.6-23.1,25,0,45.4,20.3,45.4,45.2v.8h-14.4c-4.1,0-7.5,3.4-7.5,7.5s3.4,7.5,7.5,7.5h14.4v49.9h-60.7c-13.7,0-24.9-11.1-24.9-24.7s-3.4-7.5-7.5-7.5-7.5,3.4-7.5,7.5c0,21.9,17.9,39.7,39.9,39.7h60.7v126.3h-121.7c-4.1,0-7.5,3.4-7.5,7.5s3.4,7.5,7.5,7.5h121.7v103h-23.2c-21.2,0-38.4,17.1-38.4,38.2s3.4,7.5,7.5,7.5,7.5-3.4,7.5-7.5c0-12.8,10.5-23.2,23.4-23.2h23.2v51.7c0,1.2,0,2.3-.1,3.5h-14.3c-4.1,0-7.5,3.4-7.5,7.5s3.4,7.5,7.5,7.5h10.4c-7.1,15.7-23,26.7-41.4,26.7s-31.5-8.9-39.5-22.9c9.1-3,17.5-8,24.4-14.7,3-2.9,3.1-7.6.2-10.6,0,0,0,0,0,0-2.9-3-7.6-3.1-10.6-.2,0,0,0,0,0,0-7.1,6.8-16.1,11.4-25.8,13-2.7.5-5.4.7-8.1.7-26.9,0-48.7-21.7-48.7-48.4s0-1.4,0-2.1c6.1-2.5,11.7-5.8,16.8-10.1,3.2-2.7,3.6-7.4,1-10.6h0c-2.7-3.2-7.3-3.5-10.6-1-15,11.8-29.6,11.6-35.4,11.2-4.1-.4-7.8,2.7-8.1,6.9-.3,4.1,2.7,7.8,6.9,8.1,4.8.4,9.7.3,14.4-.4,1.1,34.1,29.2,61.4,63.7,61.4s3,0,4.6-.2c9.8,21.1,31.1,34.9,54.8,34.9s60.4-27,60.4-60.2v-16.6h39.8c.8,0,2.7.8,3.3,1.3l17.9,17.8c-2.5,4-3.8,8.6-3.8,13.4,0,14,11.5,25.5,25.6,25.5s25.6-11.4,25.6-25.5-11.5-25.5-25.6-25.5-7.2.8-10.4,2.2l-18.6-18.5c-3.4-3.4-9.1-5.7-13.8-5.7h-39.8v-40.1h65.2c3.2,10.4,13,18,24.4,18s25.6-11.4,25.6-25.5-11.5-25.5-25.6-25.5-21.2,7.6-24.4,18h-65.2v-50.2h78c3.2,10.4,13,18,24.4,18s25.6-11.4,25.6-25.5-11.5-25.5-25.6-25.5-21.2,7.6-24.4,18h-78v-54.6h18.6c3.2,10.4,13,18,24.4,18s25.6-11.4,25.6-25.5-11.5-25.5-25.6-25.5-21.2,7.6-24.4,18h-18.6v-43.3h81.7c.8,0,2.7.8,3.3,1.3l15.4,15.3c1.4,1.4,3.3,2.2,5.3,2.2,4.1,0,7.5-3.4,7.5-7.5,0-2-.8-3.9-2.2-5.3l-15.4-15.3c-3.4-3.4-9.1-5.7-13.8-5.7h-81.7v-31.1h61.9,0ZM416.4,74.4c5.8,0,10.6,4.7,10.6,10.5s-4.7,10.5-10.6,10.5-10.6-4.7-10.6-10.5,4.7-10.5,10.6-10.5ZM344.1,60.5c5.8,0,10.6,4.7,10.6,10.5s-4.7,10.5-10.6,10.5-10.6-4.7-10.6-10.5c0-5.8,4.7-10.5,10.6-10.5ZM384.9,459.5c5.8,0,10.6,4.7,10.6,10.5s-4.7,10.5-10.6,10.5-10.6-4.7-10.6-10.5,4.7-10.5,10.6-10.5ZM391.9,364.4c5.8,0,10.6,4.7,10.6,10.5s-4.7,10.5-10.6,10.5-10.6-4.7-10.6-10.5,4.7-10.5,10.6-10.5ZM404.7,299.2c5.8,0,10.6,4.7,10.6,10.5s-4.7,10.5-10.6,10.5-10.6-4.7-10.6-10.5,4.7-10.5,10.6-10.5ZM345.3,229.6c5.8,0,10.6,4.7,10.6,10.5s-4.7,10.5-10.6,10.5-10.6-4.7-10.6-10.5,4.7-10.5,10.6-10.5Z" fill="#00c9a7"/>
  </g>
</svg>