<?xml version="1.0" encoding="UTF-8"?>
<svg id="Layer_1" xmlns="http://www.w3.org/2000/svg" version="1.1" viewBox="0 0 517.9 516.4">
  <!-- Generator: Adobe Illustrator 29.1.0, SVG Export Plug-In . SVG Version: 2.1.0 Build 142)  -->
  <polygon points="221.1 320.3 191.2 350.2 96.7 255.7 191.2 161.2 221.1 191.2 156.5 255.7 221.1 320.3" display="none" fill="#fff"/>
  <polygon points="272.6 350.2 242.7 320.3 307.3 255.7 242.7 191.2 272.6 161.2 367.1 255.7 272.6 350.2" display="none" fill="#fff"/>
  <g>
    <path d="M391.2,2.2H49.9c-23.6,0-42.6,19.1-42.7,42.7v273.1c0,19.5,13.2,36.5,32,41.3l4.3-16.5c-11.3-2.9-19.2-13.1-19.2-24.8V44.9c0-14.1,11.5-25.6,25.6-25.6h341.3c14.1,0,25.6,11.5,25.6,25.6v8.5h17.1v-8.5c0-23.6-19.1-42.6-42.7-42.7Z" fill="#00c9a7"/>
    <path d="M41.4,36.3h17.1v17.1h-17.1v-17.1ZM75.5,36.3h17.1v17.1h-17.1v-17.1ZM109.6,36.3h17.1v17.1h-17.1v-17.1ZM508.2,474l-80.9-80.9c4.3-7.6,7.7-15.6,10.1-24h13.6v-17.1h-9.9c3.2-20.7.7-41.8-7.2-61.2v-83.9h-17.1v54.3c-5.1-6.5-10.8-12.4-17.1-17.7v-70.8h-17.1v58.8c-5.5-3.2-11.2-5.9-17.1-8.1v-84.8h-17.1v79.6c-5.6-1.2-11.3-2-17.1-2.4v-60.2h-17.1v60.2c-5.7.4-11.4,1.2-17.1,2.4v-28.4h-17.1v33.6c-5.9,2.3-11.6,5-17.1,8.1v-50.3h-17.1v62.2c-6.3,5.3-12,11.2-17.1,17.7v-62.9h-17.1v92.5c-7.9,19.4-10.4,40.5-7.2,61.2h-112.3v17.1h116c18.7,63.1,85.1,99.1,148.2,80.4,12.4-3.7,24.2-9.4,34.8-16.9l79,79c3.3,3.3,8.7,3.3,12.1,0l25.6-25.6c3.3-3.3,3.3-8.7,0-12.1ZM323,437.4c-56.5,0-102.3-45.9-102.4-102.4,0-56.6,45.8-102.4,102.4-102.4s102.4,45.8,102.4,102.4-45.8,102.4-102.4,102.4ZM476.6,493.6l-71.8-71.8c4.7-4.4,8.9-9.2,12.8-14.2l72.5,72.5-13.5,13.5Z" fill="#00c9a7"/>
    <path d="M323,249.7c-47.1,0-85.3,38.2-85.3,85.3s38.2,85.3,85.3,85.3,85.3-38.2,85.3-85.3c0-47.1-38.2-85.3-85.3-85.3ZM323,403.3c-24.4,0-46.9-13-59-34.1h118.1c-12.2,21.1-34.7,34.1-59,34.1ZM256.9,352.1c-6.9-26,2.3-53.6,23.4-70.3v53.2h17.1v-63.2c5.5-2.2,11.2-3.7,17.1-4.4v67.7h17.1v-67.7c5.9.7,11.6,2.2,17.1,4.4v63.2h17.1v-53.2c21.1,16.7,30.2,44.3,23.4,70.3h-132Z" fill="#00c9a7"/>
    <path d="M442.4,70.5H101.1c-23.6,0-42.6,19.1-42.7,42.7v273.1c0,23.6,19.1,42.6,42.7,42.7h110.9v-17.1h-110.9c-14.1,0-25.6-11.5-25.6-25.6V113.1c0-14.1,11.5-25.6,25.6-25.6h341.3c14.1,0,25.6,11.5,25.6,25.6v273.1c0,6.2-2.3,12.3-6.4,16.9l12.8,11.3c6.9-7.8,10.7-17.8,10.7-28.2V113.1c0-23.6-19.1-42.6-42.7-42.7Z" fill="#00c9a7"/>
    <path d="M92.6,104.6h17.1v17.1h-17.1v-17.1ZM126.7,104.6h17.1v17.1h-17.1v-17.1ZM160.8,104.6h17.1v17.1h-17.1v-17.1ZM109.6,283.8h17.1v51.2h-17.1v-51.2ZM143.8,232.6h17.1v102.4h-17.1v-102.4ZM177.9,258.2h17.1v76.8h-17.1v-76.8Z" fill="#00c9a7"/>
  </g>
</svg>