<?xml version="1.0" encoding="UTF-8"?>
<svg id="Layer_1" xmlns="http://www.w3.org/2000/svg" version="1.1" viewBox="0 0 517.9 516.4">
  <!-- Generator: Adobe Illustrator 29.1.0, SVG Export Plug-In . SVG Version: 2.1.0 Build 142)  -->
  <polygon points="221.1 320.3 191.2 350.2 96.7 255.7 191.2 161.2 221.1 191.2 156.5 255.7 221.1 320.3" display="none" fill="#fff"/>
  <polygon points="272.6 350.2 242.7 320.3 307.3 255.7 242.7 191.2 272.6 161.2 367.1 255.7 272.6 350.2" display="none" fill="#fff"/>
  <g>
    <path d="M492,291.9l-18.8-6.2c1.2-9.1,1.8-18.3,1.8-27.4,0-9.2-.6-18.4-1.8-27.5l18.8-6.2c8.4-2.7,13-11.8,10.2-20.2l-14.8-45.6c-1.3-4.1-4.2-7.4-8-9.4-3.9-2-8.4-2.3-12.5-1l-18.6,5.8c-8.7-16.1-19.5-31.1-32-44.5l11.6-16c5.2-7.1,3.7-17.1-3.5-22.4,0,0,0,0,0,0l-39.2-27.8c-7.1-5.2-17.1-3.6-22.3,3.5l-11.7,16c-16.6-7.9-34.2-13.7-52.3-17v-19.8c0-8.8-7.2-16-16-16h-48c-8.8,0-16,7.2-16,16v19.8c-18.1,3.4-35.8,9.1-52.4,17l-11.6-16c-5.2-7.1-15.2-8.7-22.3-3.5l-38.9,28.2c-7.2,5.2-8.7,15.2-3.6,22.3,0,0,0,0,0,0l11.5,16c-12.5,13.4-23.3,28.4-32,44.6l-18.8-6.2c-8.4-2.7-17.4,1.9-20.2,10.3,0,0,0,0,0,0l-14.8,45.6c-2.7,8.4,1.8,17.4,10.2,20.2l18.8,6.2c-1.3,9.1-2,18.3-2.1,27.4,0,9.2.6,18.4,1.8,27.5l-18.8,6.2c-8.4,2.7-13,11.8-10.2,20.2l14.8,45.6c1.3,4.1,4.2,7.4,8,9.4,3.9,2,8.4,2.3,12.5,1l18.6-5.8c8.7,16.1,19.5,31.1,32,44.5l-11.6,16c-5.2,7.1-3.7,17.1,3.5,22.4,0,0,0,0,0,0l38.9,28.2c7.1,5.2,17.1,3.7,22.4-3.4,0-.1.2-.3.3-.4l11.7-16c16.6,7.9,34.2,13.7,52.3,17v19.8c0,8.8,7.2,16,16,16h48c8.8,0,16-7.2,16-16v-19.8c18.1-3.4,35.7-9.1,52.3-17l11.6,16c5.2,7.1,15.2,8.7,22.3,3.5l38.9-28.2c7.2-5.2,8.7-15.2,3.6-22.3,0,0,0,0,0,0l-11.5-16c12.5-13.4,23.3-28.4,32-44.6l18.9,6.2c8.4,2.7,17.4-1.9,20.2-10.3,0,0,0,0,0,0l14.8-45.6c2.8-8.3-1.7-17.3-9.9-20.2h0ZM472.2,352.7l-18.8-6.1c-7.4-2.3-15.4,1.1-19,8-8.2,14.9-18.3,28.8-29.9,41.2-5.1,5.5-5.8,13.8-1.5,20l11.6,16-38.8,28.2-11.6-16c-4.6-6.3-13-8.3-19.9-5-15.2,7.4-31.4,12.8-48,16-7.7,1.4-13.2,8.2-13.1,16v19.2h-48.2v-19.8c.1-7.8-5.4-14.6-13.1-16-16.8-3.2-33-8.6-48.4-16-6.9-3.3-15.2-1.2-19.8,5l-11.7,16-38.8-27.6,11.6-16c4.5-6.2,3.9-14.8-1.4-20.4-11.7-12.4-21.7-26.3-29.9-41.2-3.5-6.9-11.5-10.3-19-8l-18.8,6.2-14.9-45.3,18.8-6.2c7.3-2.4,11.9-9.7,10.9-17.3-2.1-16.9-2.1-34,0-50.9,1-7.6-3.6-14.9-10.9-17.3l-18.8-6.2,14.9-45.6,18.8,6.5c7.4,2.3,15.4-1.1,19-8,8.2-14.9,18.3-28.8,29.9-41.2,5.4-5.5,6-14.1,1.5-20.4l-11.6-16,38.8-28.2,11.6,16c4.6,6.3,13,8.3,19.9,5,15.2-7.4,31.4-12.8,48-16,7.7-1.4,13.2-8.2,13.1-16v-19.2h48v19.8c-.1,7.8,5.4,14.6,13.1,16,16.6,3.3,32.7,8.6,48,16,6.9,3.3,15.2,1.2,19.8-5l11.7-16,38.8,28.2-11.2,15.4c-4.5,6.2-3.9,14.8,1.4,20.4,11.7,12.4,21.8,26.3,30.1,41.2,3.5,6.9,11.5,10.3,19,8l18.8-6.2,14.9,45.7-18.8,6.2c-7.3,2.4-11.9,9.7-10.9,17.3,2.1,16.9,2.1,34,0,50.9-1,7.6,3.6,14.9,10.9,17.3l18.8,6.2-14.9,45.2Z" fill="#00c9a7"/>
    <path d="M151.4,150.7c52.8-52.3,135.6-59.1,196.2-16h-22.2v16h48.8c4.4,0,8-3.6,8-8,0-.9-.2-1.8-.5-2.7l-16.6-45.9-15,5.5,8,23.1c-74.8-54.9-179.9-38.9-234.9,35.9-40.3,54.8-43.5,128.6-8.2,186.7l13.7-8c-36.4-60-27-137.2,22.8-186.6ZM389,179.4c43.1,72.1,19.5,165.4-52.5,208.4-51.5,30.8-116.4,28.4-165.5-6.2h22.2v-16h-48.8c-4.4,0-8,3.6-8,8,0,1,.2,1.9.5,2.8l16.6,45.8,15-5.4-8.5-23.3c74.9,54.8,180,38.4,234.8-36.5,40-54.7,43.2-128,8.2-186l-14,8.3Z" fill="#00c9a7"/>
    <path d="M147,274.2v40c0,4.4,3.6,8,8,8h56c0,4.4,3.6,8,8,8h80c4.4,0,8-3.6,8-8h56c4.4,0,8-3.6,8-8v-40c0-13.9-9.1-26.2-22.4-30.4,12-9.7,13.9-27.3,4.2-39.4s-27.3-13.9-39.4-4.2-13.9,27.3-4.2,39.4c1.2,1.5,2.6,2.9,4.2,4.2-5,1.5-9.6,4.3-13.3,8-5.3-7.8-13.2-13.5-22.2-16,14.3-10.4,17.4-30.4,7-44.7s-30.4-17.4-44.7-7-17.4,30.4-7,44.7c1.9,2.7,4.3,5,7,7-9.1,2.5-16.9,8.2-22.2,16-3.7-3.7-8.3-6.5-13.3-8,12-9.7,13.9-27.3,4.2-39.4-9.7-12-27.3-13.9-39.4-4.2s-13.9,27.3-4.2,39.4c1.2,1.5,2.6,2.9,4.2,4.2-13.3,4.2-22.3,16.5-22.4,30.4ZM331,210.2c6.6,0,12,5.4,12,12s-5.4,12-12,12-12-5.4-12-12h0c0-6.6,5.4-12,12-12ZM307,274.2c0-8.8,7.2-16,16-16h16c8.8,0,16,7.2,16,16v32h-48v-32ZM259,194.2c8.8,0,16,7.2,16,16s-7.2,16-16,16-16-7.2-16-16,7.2-16,16-16ZM227,274.2c0-13.3,10.7-24,24-24h16c13.3,0,24,10.7,24,24v40h-64v-40ZM187,210.2c6.6,0,12,5.4,12,12s-5.4,12-12,12-12-5.4-12-12h0c0-6.6,5.4-12,12-12ZM163,274.2c0-8.8,7.2-16,16-16h16c8.8,0,16,7.2,16,16v32h-48v-32Z" fill="#00c9a7"/>
  </g>
</svg>