<?xml version="1.0" encoding="UTF-8"?>
<svg id="Layer_1" xmlns="http://www.w3.org/2000/svg" version="1.1" viewBox="0 0 517.9 516.4">
  <!-- Generator: Adobe Illustrator 29.1.0, SVG Export Plug-In . SVG Version: 2.1.0 Build 142)  -->
  <defs>
    <style>
      .st0 {
        display: none;
        fill: #fff;
      }

      .st1 {
        fill: #00c9a7;
      }
    </style>
  </defs>
  <polygon class="st0" points="221.1 320.3 191.2 350.2 96.7 255.7 191.2 161.2 221.1 191.2 156.5 255.7 221.1 320.3"/>
  <polygon class="st0" points="272.6 350.2 242.7 320.3 307.3 255.7 242.7 191.2 272.6 161.2 367.1 255.7 272.6 350.2"/>
  <path class="st1" d="M412.6,207.7c56.5,0,102.4-45.9,102.4-102.4S469.1,2.9,412.6,2.9s-76.4,24.3-92.7,59.2l-27.4-10.1c.3-2.1.6-4.2.6-6.4,0-23.5-19.1-42.7-42.7-42.7s-42.7,19.1-42.7,42.7,19.1,42.7,42.7,42.7,28.6-8.1,36.1-20.3l27.4,10.1c-2.4,8.7-3.8,17.8-3.8,27.2s1.9,21.9,5.2,32l-93.8,39.8c-17.2-32.5-51.3-54.7-90.5-54.7s-24.9,2.4-36.1,6.7l-23.6-49.6c10.3-7.8,17-20,17-33.9,0-23.5-19.1-42.7-42.7-42.7S3,22,3,45.6s19.1,42.7,42.7,42.7,7-.6,10.3-1.4l23.6,49.6c-30.4,17.8-50.9,50.7-50.9,88.4s18.1,66.6,45.4,85l-15.6,28.1c-4.1-1.3-8.3-2.2-12.8-2.2-23.5,0-42.7,19.1-42.7,42.7s19.1,42.7,42.7,42.7,42.7-19.1,42.7-42.7-5.9-24.4-15-32.2l15.6-28.1c12.8,5.8,27,9.1,42,9.1,23.4,0,45-8,62.2-21.3l33.6,37c-17,18.3-27.5,42.7-27.5,69.7s.5,10.3,1.3,15.3l-39.5,9.4c-6.8-14.5-21.5-24.7-38.6-24.7s-42.7,19.1-42.7,42.7,19.1,42.7,42.7,42.7,42.7-19.1,42.7-42.7-.1-.9-.1-1.4l39.4-9.3c13.4,40.9,51.9,70.5,97.2,70.5s102.4-45.9,102.4-102.4-4.4-34-12.2-48.4l50.1-32.6c7.8,7.9,18.5,12.7,30.4,12.7,23.5,0,42.7-19.1,42.7-42.7s-19.1-42.7-42.7-42.7-42.7,19.1-42.7,42.7,1.1,10.7,3,15.6l-50.2,32.7c-10.1-13-23.2-23.4-38.1-30.3l41.7-115.5c8.5,2.3,17.4,3.6,26.6,3.6ZM250.5,71.2c-14.1,0-25.6-11.5-25.6-25.6s11.5-25.6,25.6-25.6,25.6,11.5,25.6,25.6-11.5,25.6-25.6,25.6ZM20.1,45.6c0-14.1,11.5-25.6,25.6-25.6s25.6,11.5,25.6,25.6-11.5,25.6-25.6,25.6-25.6-11.5-25.6-25.6ZM45.7,404c-14.1,0-25.6-11.5-25.6-25.6s11.5-25.6,25.6-25.6,25.6,11.5,25.6,25.6-11.5,25.6-25.6,25.6ZM122.5,480.8c-14.1,0-25.6-11.5-25.6-25.6s11.5-25.6,25.6-25.6,25.6,11.5,25.6,25.6-11.5,25.6-25.6,25.6ZM472.3,276c14.1,0,25.6,11.5,25.6,25.6s-11.5,25.6-25.6,25.6-25.6-11.5-25.6-25.6,11.5-25.6,25.6-25.6ZM362.3,174.1c3.8-19.7,21.2-34.7,41.7-34.7h17.1c20.5,0,37.9,14.9,41.7,34.7-14.1,10.3-31.5,16.5-50.3,16.5s-36.1-6.2-50.3-16.5ZM412.6,122.4c-14.1,0-25.6-11.5-25.6-25.6s11.5-25.6,25.6-25.6,25.6,11.5,25.6,25.6-11.5,25.6-25.6,25.6ZM412.6,20c47.1,0,85.3,38.3,85.3,85.3s-7.9,40.8-20.9,55.8c-6-15.7-18.4-28.3-34-34.5,7.6-7.7,12.2-18.2,12.2-29.8,0-23.5-19.1-42.7-42.7-42.7s-42.7,19.1-42.7,42.7,4.7,22.1,12.2,29.8c-15.5,6.2-28,18.8-34,34.5-13-15-20.9-34.5-20.9-55.8,0-47.1,38.3-85.3,85.3-85.3ZM45.7,224.8c0-47.1,38.3-85.3,85.3-85.3s85.3,38.3,85.3,85.3-8,40.9-21,55.9c-6-15.8-18.4-28.4-34-34.7,7.5-7.7,12.2-18.2,12.2-29.8,0-23.5-19.1-42.7-42.7-42.7s-42.7,19.1-42.7,42.7,4.7,22.1,12.2,29.8c-15.5,6.2-27.9,18.7-33.9,34.4-12.9-15-20.8-34.4-20.8-55.7ZM105.2,216.2c0-14.1,11.5-25.6,25.6-25.6s25.6,11.5,25.6,25.6-11.5,25.6-25.6,25.6-25.6-11.5-25.6-25.6ZM80.6,293.5c3.8-19.7,21.2-34.6,41.7-34.6h17.1c20.5,0,38,15,41.7,34.8-14.1,10.3-31.4,16.4-50.1,16.4s-36.3-6.2-50.4-16.6ZM251.3,481.2c3.8-19.7,21.2-34.6,41.7-34.6h17.1c20.5,0,38,15,41.7,34.8-14.1,10.3-31.4,16.4-50.1,16.4s-36.3-6.2-50.4-16.6ZM301.5,429.6c-14.1,0-25.6-11.5-25.6-25.6s11.5-25.6,25.6-25.6,25.6,11.5,25.6,25.6-11.5,25.6-25.6,25.6ZM387,412.5c0,21.4-8,40.9-21,55.9-6-15.8-18.4-28.4-34-34.7,7.5-7.7,12.2-18.2,12.2-29.8,0-23.5-19.1-42.7-42.7-42.7s-42.7,19.1-42.7,42.7,4.7,22.1,12.2,29.8c-15.5,6.2-27.9,18.7-33.9,34.4-12.9-15-20.8-34.4-20.8-55.7,0-47.1,38.3-85.3,85.3-85.3s85.3,38.3,85.3,85.3ZM328.3,313.7c-8.5-2.3-17.4-3.6-26.6-3.6-23.4,0-45,8-62.2,21.3l-33.6-37c17-18.3,27.5-42.7,27.5-69.7s-1.9-21.9-5.2-32l93.8-39.8c10.5,19.9,27.4,35.8,47.9,45.3l-41.7,115.5Z"/>
</svg>