<?xml version="1.0" encoding="UTF-8"?>
<svg id="Layer_1" xmlns="http://www.w3.org/2000/svg" version="1.1" viewBox="0 0 517.9 516.4">
  <!-- Generator: Adobe Illustrator 29.1.0, SVG Export Plug-In . SVG Version: 2.1.0 Build 142)  -->
  <polygon points="221.1 320.3 191.2 350.2 96.7 255.7 191.2 161.2 221.1 191.2 156.5 255.7 221.1 320.3" display="none" fill="#fff"/>
  <polygon points="272.6 350.2 242.7 320.3 307.3 255.7 242.7 191.2 272.6 161.2 367.1 255.7 272.6 350.2" display="none" fill="#fff"/>
  <g>
    <path d="M75.7,271.5c22,0,39.9-17.9,39.9-39.9s-2.7-16.3-7.2-22.8l67.1-67.3c6.4,4.3,14.1,6.9,22.4,6.9s19.8-4.1,26.9-10.6l59.5,44.1c-2.6,5.3-4.1,11.1-4.1,17.3,0,22,17.9,39.9,39.9,39.9s39.9-17.9,39.9-39.9-3.1-17.1-8.1-23.8l79.6-87.6-4.1,29.6c-.5,4.1,2.2,7.9,6.4,8.5.4,0,.7,0,1.1,0,3.6,0,6.9-2.7,7.4-6.4l7.5-53.7c0-.2,0-.3,0-.5,0-.8,0-1.5-.2-2.2l-.2-1c-.3-.7-.7-1.4-1.2-1.9-.2-.2-.2-.5-.5-.7,0,0-.2,0-.2-.2,0,0,0,0,0,0s0,0-.2,0c-1.4-1.2-3.3-1.9-5.2-1.9h-.7l-53.7,7.5c-4.1.5-7,4.3-6.4,8.5.5,4.1,4.3,7,8.5,6.4l33.2-4.7-82,90.3c-6.1-3.7-13.1-6-20.7-6s-19.8,4.1-26.8,10.6l-59.5-44.1c2.6-5.2,4-11,4-17.2,0-22-17.9-39.9-39.9-39.9s-39.9,17.9-39.9,39.9,2.6,16,6.9,22.4l-67.3,67.4c-6.3-4.2-13.9-6.7-22-6.7-22,0-39.9,17.9-39.9,39.9,0,21.9,17.7,39.8,39.6,39.9,0,0,.1,0,.2,0h0ZM320.1,174.3c13.7,0,24.9,11.2,24.9,24.9s-11.2,24.9-24.9,24.9-24.9-11.2-24.9-24.9,11.2-24.9,24.9-24.9ZM197.8,83.6c13.7,0,24.9,11.2,24.9,24.9s-11.2,24.9-24.9,24.9-24.9-11.2-24.9-24.9,11.2-24.9,24.9-24.9h0ZM75.7,206.7c13.7,0,24.9,11.2,24.9,24.9s-11.2,24.9-24.9,24.9-24.9-11.2-24.9-24.9,11.2-24.9,24.9-24.9h0Z" fill="#00c9a7"/>
    <path d="M499.1,444h-14.1v-250.6c0-12.4-10.1-22.5-22.5-22.5h-40.2c-12.4,0-22.5,10.1-22.5,22.5v250.6h-37v-138.1c0-12.4-10.1-22.5-22.5-22.5h-40.2c-12.4,0-22.5,10.1-22.5,22.5v138h-37v-198c0-12.4-10.1-22.5-22.5-22.5h-40.2c-12.4,0-22.5,10.1-22.5,22.5v198.1h-37v-70.5c0-12.4-10.1-22.5-22.5-22.5h-40.3c-12.4,0-22.5,10.1-22.5,22.5v70.5h-14.2c-4.2,0-7.5,3.4-7.5,7.5,0,4.1,3.4,7.5,7.5,7.5h480.1c4.2,0,7.5-3.3,7.6-7.5,0-4.2-3.3-7.5-7.5-7.6h0ZM48,444v-70.5c0-4.1,3.3-7.5,7.5-7.5h40.2c4.1,0,7.5,3.3,7.5,7.5v70.5h-55.2ZM170.2,444v-198.1c0-4.1,3.3-7.5,7.5-7.5h40.2c4.1,0,7.5,3.3,7.5,7.5v198.1h-55.2ZM292.5,444v-138.1c0-4.1,3.3-7.5,7.5-7.5h40.2c4.1,0,7.5,3.3,7.5,7.5v138h-55.2ZM414.7,444v-250.6c0-4.1,3.3-7.5,7.5-7.5h40.2c4.1,0,7.5,3.3,7.5,7.5v250.6h-55.2Z" fill="#00c9a7"/>
  </g>
</svg>