<?xml version="1.0" encoding="UTF-8"?>
<svg id="Layer_1" xmlns="http://www.w3.org/2000/svg" version="1.1" viewBox="0 0 517.9 512.9">
  <!-- Generator: Adobe Illustrator 29.1.0, SVG Export Plug-In . SVG Version: 2.1.0 Build 142)  -->
  <polygon points="221.1 316.8 191.2 346.7 96.7 252.2 191.2 157.7 221.1 187.7 156.5 252.2 221.1 316.8" display="none" fill="#fff"/>
  <polygon points="272.6 346.7 242.7 316.8 307.3 252.2 242.7 187.7 272.6 157.7 367.1 252.2 272.6 346.7" display="none" fill="#fff"/>
  <g>
    <path d="M491,488.4v-240h-16v-32h-16v-48h-16v-32h-16v32h-16v48h-16V38.7l-48,9.6v-23.8h-16v27l-16,3.2V8.4h-16v49.4l-16,3.2V24.4h-16v39.8l-48,9.6v46.6H75v16h16v96.7c-2.6-.5-5.3-.7-8-.7-30.9,0-56,28.7-56,64s20.9,58.8,48,63.3v10.4c-6.7-6.1-15-9.7-24-9.7-22.1,0-40,21.5-40,48s13.8,42.6,32,47v33H11v16h496v-16h-16ZM139,480.4c0-13.2,10.8-24,24-24,8.7,0,16.7,4.7,20.9,12.2l2.5,4.4,8.6-.6c2.4,0,4.8.5,7.6,1.4l7.8,2.6,2.4-7.8c5.1-16.8,20.7-28.2,38.2-28.2,14.5,0,28,7.9,35,20.7l5,9.1,7.5-7.1c9-8.5,23.9-8.5,32.9,0l7.5,7.1,5-9.1c7-12.8,20.5-20.7,35-20.7,17.3,0,32.7,11.1,38,27.6l2.2,6.9,7.1-1.6c15.9-3.5,31.4,3,40.5,15H140.5c-1-2.6-1.5-5.3-1.6-8ZM475,264.4v209.1c-4.6-4.8-10-8.7-16-11.5v-181.6h-112v154.2c-4.5,3.1-8.6,6.9-12,11.2-1.3-.7-2.6-1.4-4-2v-179.4h144ZM379,424.4c-5.5,0-10.9.9-16,2.4v-130.4h32v130.3c-5.2-1.5-10.6-2.3-16-2.3ZM411,296.4h32v160.8c-4.4-.7-8.9-.9-13.3-.5-4.2-8.9-10.6-16.5-18.7-22.1v-138.1ZM347,248.4v-16h112v16h-112ZM427,184.4h16v32h-16v-32ZM379,58.2v158.2h-48v32h-16v192.1c-7,0-13.9,1.8-20,5.3-10.6-13.5-26.8-21.4-44-21.4-5.5,0-10.9.8-16,2.3V87l144-28.8ZM107,136.4h112v298.1c-8.1,5.6-14.6,13.3-18.8,22.3-1.7-.2-3.4-.4-5.2-.4-7.6-10.1-19.4-16-32-16-22.1,0-40,17.9-40,40s.4,5.4.9,8h-32.9v-29l48-56v-19.7c27.1-4.5,48-31.1,48-63.3s-11.7-45.1-29-56h13v-16h-16v14.3c-7.3-4.1-15.6-6.2-24-6.3-1.4,0-2.8,0-4.2.2-5.1-7.4-11.9-13.6-19.8-18v-102.3ZM139,296.4c0-8.4-1.5-16.4-4-23.8,20.2,2.4,36,22.9,36,47.8s-17.9,48-40,48-19.7-4.6-27-12.7c20.5-9.5,35-32.5,35-59.3ZM91,365.1c8.6,10.1,19.8,16.6,32,18.6v13.8l-32,37.3v-69.7ZM43,296.4c0-26.5,17.9-48,40-48s40,21.5,40,48-13.8,42.6-32,47v-55h-16v55c-18.2-4.5-32-23.8-32-47ZM27,408.4c0-17.6,10.8-32,24-32s24,14.4,24,32-10.8,32-24,32-24-14.4-24-32ZM59,455.5c5.9-1.4,11.3-4.5,16-8.7v41.7h-16v-33Z" fill="#00c9a7"/>
    <path d="M299,104.4h-48v64h48v-64ZM283,152.4h-16v-32h16v32ZM299,184.4h-48v64h48v-64ZM283,232.4h-16v-32h16v32ZM299,264.4h-48v64h48v-64ZM283,312.4h-16v-32h16v32ZM299,344.4h-48v64h48v-64ZM283,392.4h-16v-32h16v32ZM363,104.4h-48v64h48v-64ZM347,152.4h-16v-32h16v32ZM123,152.4h16v16h-16v-16ZM155,152.4h16v16h-16v-16ZM187,152.4h16v16h-16v-16ZM123,184.4h16v16h-16v-16ZM155,184.4h16v16h-16v-16ZM187,184.4h16v16h-16v-16ZM155,216.4h16v16h-16v-16ZM123,216.4h16v16h-16v-16ZM187,216.4h16v16h-16v-16ZM187,248.4h16v16h-16v-16Z" fill="#00c9a7"/>
  </g>
</svg>