<?xml version="1.0" encoding="UTF-8"?>
<svg id="Layer_1" xmlns="http://www.w3.org/2000/svg" version="1.1" viewBox="0 0 517.9 516.4">
  <!-- Generator: Adobe Illustrator 29.1.0, SVG Export Plug-In . SVG Version: 2.1.0 Build 142)  -->
  <polygon points="221.1 320.3 191.2 350.2 96.7 255.7 191.2 161.2 221.1 191.2 156.5 255.7 221.1 320.3" display="none" fill="#fff"/>
  <polygon points="272.6 350.2 242.7 320.3 307.3 255.7 242.7 191.2 272.6 161.2 367.1 255.7 272.6 350.2" display="none" fill="#fff"/>
  <g>
    <path d="M295,212.2h-72c-5.5,0-10,4.5-10,10v72c0,5.5,4.5,10,10,10h72c5.5,0,10-4.5,10-10v-72c0-5.5-4.5-10-10-10ZM285,284.2h-52v-52h52v52ZM481,56.2c-18.7,0-34,15.3-34,34s15.3,34,34,34,34-15.3,34-34-15.3-34-34-34ZM481,104.2c-7.7,0-14-6.3-14-14s6.3-14,14-14,14,6.3,14,14-6.3,14-14,14ZM429.5,83.1c-1.9-1.9-4.4-2.9-7.1-2.9-2.6,0-5.2,1.1-7.1,2.9-1.9,1.9-2.9,4.4-2.9,7.1,0,2.6,1.1,5.2,2.9,7.1,1.9,1.9,4.4,2.9,7.1,2.9,2.6,0,5.2-1.1,7.1-2.9,1.9-1.9,2.9-4.4,2.9-7.1s-1.1-5.2-2.9-7.1Z" fill="#00c9a7"/>
    <path d="M418.5,268.2c4.3,13.9,17.2,24,32.5,24s34-15.3,34-34-15.3-34-34-34-28.2,10.1-32.5,24h-61.5v-78c0-5.5-4.5-10-10-10h-16v-60h56c5.5,0,10-4.5,10-10s-4.5-10-10-10h-66c-5.5,0-10,4.5-10,10v70h-42v-61.5c13.9-4.3,24-17.2,24-32.5s-15.3-34-34-34-34,15.3-34,34,10.1,28.2,24,32.5v61.5h-78c-5.5,0-10,4.5-10,10v16h-60v-117.5c13.9-4.3,24-17.2,24-32.5S109.7,2.2,91,2.2s-34,15.3-34,34,10.1,28.2,24,32.5v127.5c0,5.5,4.5,10,10,10h70v42h-61.5c-4.3-13.9-17.2-24-32.5-24s-34,15.3-34,34,15.3,34,34,34,28.2-10.1,32.5-24h61.5v78c0,5.5,4.5,10,10,10h16v60h-56c-5.5,0-10,4.5-10,10s4.5,10,10,10h66c5.5,0,10-4.5,10-10v-70h42v61.5c-13.9,4.3-24,17.2-24,32.5s15.3,34,34,34,34-15.3,34-34-10.1-28.2-24-32.5v-61.5h78c5.5,0,10-4.5,10-10v-16h60v117.5c-13.9,4.3-24,17.2-24,32.5s15.3,34,34,34,34-15.3,34-34-10.1-28.2-24-32.5v-127.5c0-5.5-4.5-10-10-10h-70v-42h61.5ZM451,244.2c7.7,0,14,6.3,14,14s-6.3,14-14,14-14-6.3-14-14,6.3-14,14-14ZM91,50.2c-7.7,0-14-6.3-14-14s6.3-14,14-14,14,6.3,14,14-6.3,14-14,14ZM66.9,272.2c-7.7,0-14-6.3-14-14s6.3-14,14-14,14,6.3,14,14-6.3,14-14,14ZM245,66.2c0-7.7,6.3-14,14-14s14,6.3,14,14-6.3,14-14,14-14-6.3-14-14ZM273,450.2c0,7.7-6.3,14-14,14s-14-6.3-14-14,6.3-14,14-14,14,6.3,14,14ZM337,336.2h-156v-156h156v156ZM427,466.2c7.7,0,14,6.3,14,14s-6.3,14-14,14-14-6.3-14-14,6.3-14,14-14ZM37,392.2c-18.7,0-34,15.3-34,34s15.3,34,34,34,34-15.3,34-34-15.3-34-34-34ZM37,440.2c-7.7,0-14-6.3-14-14s6.3-14,14-14,14,6.3,14,14-6.3,14-14,14ZM102.5,419.2c-1.9-1.9-4.4-2.9-7.1-2.9s-5.2,1.1-7.1,2.9c-1.9,1.9-2.9,4.4-2.9,7.1,0,2.6,1.1,5.2,2.9,7.1,1.9,1.9,4.4,2.9,7.1,2.9s5.2-1.1,7.1-2.9c1.9-1.9,2.9-4.4,2.9-7.1,0-2.6-1.1-5.2-2.9-7.1Z" fill="#00c9a7"/>
  </g>
</svg>