<?xml version="1.0" encoding="UTF-8"?>
<svg id="Layer_1" xmlns="http://www.w3.org/2000/svg" version="1.1" viewBox="0 0 1490.3 466.8">
  <!-- Generator: Adobe Illustrator 29.1.0, SVG Export Plug-In . SVG Version: 2.1.0 Build 142)  -->
  <polygon points="221.1 297.5 191.2 327.4 96.7 232.9 191.2 138.4 221.1 168.4 156.5 232.9 221.1 297.5" display="none" fill="#fff"/>
  <polygon points="272.6 327.4 242.7 297.5 307.3 232.9 242.7 168.4 272.6 138.4 367.1 232.9 272.6 327.4" display="none" fill="#fff"/>
  <path d="M640.2,198.6c-15.3-18.8-36.1-28.1-60.8-28.1-48.7,0-85.3,38.6-85.3,90.5s36.6,90.5,85.3,90.5,45.5-9.3,60.8-28.1l2.6,23.2h37.3v-171.2h-37.3l-2.6,23.2ZM587.6,315.9c-30.9,0-53.3-22.4-53.3-54.9s22.3-54.9,53.3-54.9,52.9,22.7,52.9,54.9-21.7,54.9-52.9,54.9ZM707.9,346.6h39.5v-171.2h-39.5v171.2ZM411.5,286.5c-30.7-67-64.4-135-98.7-201.9-6.2-12.4-18-36.3-28.4-49-15-18.3-37.2-28.1-59.8-28.1s-44.8,9.8-59.8,28.1c-10.5,12.7-22.2,36.6-28.4,49-34.3,67-68,135-98.7,201.9-3.9,8.8-13.4,29.7-17,39.2-4.2,11.4-6.5,23.9-6.5,36.3,0,53.9,42.2,97.4,98.4,97.4s83.3-29.7,112.1-60.8c28.8,31,65.7,60.8,112.1,60.8s98.7-43.5,98.7-97.4-2.6-24.8-6.9-36.3c-3.6-9.5-13.1-30.4-17-39.2ZM224.6,346.6c-23.2-30.1-44.8-67.3-44.8-97.4s21.2-45.1,44.8-45.1,45.1,16,45.1,45.1-21.9,67.3-45.1,97.4ZM336.7,425.7c-34.4,0-63.8-24-89.9-52.9,26.9-33.6,56.6-81.1,56.6-123.6s-38.9-78.8-78.7-78.8-78.4,28.8-78.4,78.8,29.5,90,56.3,123.5c-26.1,28.9-55.6,52.9-90,52.9s-64.7-28.4-64.7-63.7,1.3-16.3,4.2-24.5c2.9-7.5,12.4-28.4,16.3-36.6,30.7-67,63.7-134.3,98-201.3,6.2-12.4,16.7-33,24.5-42.5,8.5-10.5,20.3-16,33.7-16s25.2,5.6,33.7,16c7.8,9.5,18.3,30.1,24.5,42.5,34.3,67,67.3,134.3,98,201.3,3.9,8.2,13.4,29.1,16.3,36.6,2.9,8.2,4.6,16,4.6,24.5,0,35.3-27.8,63.7-65,63.7ZM1390.8,170.5c-24.6,0-46,9.7-61.1,28.1v-96.4h-39.5v244.4h37.3l2.6-23.2c15.3,18.8,36.1,28.1,60.8,28.1,48.7,0,85.3-38.6,85.3-90.5s-36.6-90.5-85.3-90.5ZM1382.6,315.9c-31.3,0-52.9-22.7-52.9-54.9s21.7-54.9,52.9-54.9,53.3,22.4,53.3,54.9-22.3,54.9-53.3,54.9ZM1198.7,170.5c-25.6,0-43.4,11.9-53.6,28.1l-2.6-23.2h-37.3v171.2h39.5v-99c0-24.2,18-41.5,42.8-41.5s36.9,16,36.9,43.5v97.1h39.5v-102c0-45.7-25.2-74.2-65.4-74.2ZM815.1,199.9l-2.6-24.5h-37.3v171.2h39.5v-86.3c0-30.1,18.3-49.3,48.7-49.3s13.1.7,18.3,2.3v-37.9c-4.9-2-11.1-2.6-18-2.6-20.7,0-38.3,10.8-48.7,27.1ZM1000.3,170.5c-24.6,0-46,9.7-61.1,28.1v-96.4h-39.5v244.4h37.3l2.6-23.2c15.3,18.8,36.1,28.1,60.8,28.1,48.7,0,85.3-38.6,85.3-90.5s-36.6-90.5-85.3-90.5ZM992.1,315.9c-31.3,0-52.9-22.7-52.9-54.9s21.7-54.9,52.9-54.9,53.3,22.4,53.3,54.9-22.3,54.9-53.3,54.9ZM727.6,102.2c-14.2,0-25.6,11.5-25.6,25.7s11.5,25.7,25.6,25.7,25.7-11.5,25.7-25.7-11.5-25.7-25.7-25.7Z" fill="#fff"/>
</svg>