<?xml version="1.0" encoding="UTF-8"?>
<svg id="Layer_1" xmlns="http://www.w3.org/2000/svg" version="1.1" viewBox="0 0 214 39.7">
  <!-- Generator: Adobe Illustrator 29.1.0, SVG Export Plug-In . SVG Version: 2.1.0 Build 142)  -->
  <path d="M84.2,5.4c0-.6.2-1.3.5-1.8.4-.5.9-.9,1.4-1.2.6-.2,1.2-.3,1.9-.2.6.1,1.2.4,1.6.9.4.5.8,1,.9,1.6.1.6,0,1.3-.2,1.9s-.7,1.1-1.2,1.4c-.5.4-1.1.5-1.8.5-.4,0-.8,0-1.2-.2-.4-.2-.7-.4-1-.7-.3-.3-.5-.7-.7-1-.2-.4-.2-.8-.2-1.2h0ZM137.9,30c.6,0,1.3-.2,1.8-.5.5-.4.9-.9,1.2-1.4.2-.6.3-1.2.2-1.9-.1-.6-.4-1.2-.9-1.7-.4-.5-1-.8-1.6-.9-.6-.1-1.3,0-1.9.2-.6.2-1.1.7-1.4,1.2-.4.5-.5,1.2-.5,1.8s.3,1.7.9,2.3c.6.6,1.4.9,2.3.9h0ZM31.6,10c-2,0-3.9.6-5.5,1.7-1.6,1.1-2.9,2.7-3.6,4.5-.7,1.8-.9,3.8-.5,5.8.4,1.9,1.4,3.7,2.8,5.1,1.4,1.4,3.2,2.3,5.1,2.7,1.9.4,3.9.2,5.8-.6s3.4-2,4.5-3.7c1.1-1.6,1.7-3.6,1.7-5.6,0-1.3-.2-2.7-.7-3.9-.5-1.2-1.2-2.4-2.2-3.3-.9-.9-2.1-1.7-3.3-2.2-1.2-.5-2.6-.7-3.9-.6h0ZM31.6,25.4c-2.8,0-4.7-2.2-4.7-5.3s1.9-5.3,4.7-5.3,4.7,2.2,4.7,5.3-1.9,5.3-4.7,5.3ZM78,20.6c-.2-.4-.5-.8-.8-1.1l-.2-.2.2-.2c.3-.3.6-.7.8-1l5.1-7.7h-6.2l-3.9,6c-.2.2-.4.3-.6.4-.2,0-.5.1-.7,0h-.9V5.6c0-2.3-1.4-2.6-2.9-2.6h-2.6v26.8h5.5v-8h.5c.6,0,1.1,0,1.3.4l3.1,5.7c.3.6.7,1.2,1.3,1.5.6.3,1.3.5,2,.4h4.3l-3.2-5.2-2.1-3.9ZM104.9,10c-1,0-2.1.2-3.1.6-1,.4-1.8,1-2.6,1.8l-.3.3v-.5c-.3-.6-.7-1.1-1.2-1.4-.5-.3-1.1-.5-1.7-.4h-2.5v19.3h5.5v-8.9c0-.8,0-1.6.3-2.3.3-1,.8-1.9,1.6-2.5.8-.6,1.8-.9,2.8-.9,1.7,0,2.3.9,2.3,3.3v8.4c0,.4,0,.8,0,1.2.1.4.3.7.6,1,.3.3.6.5,1,.6.4.1.8.2,1.2,0h2.6v-12.3c0-4.9-2.3-7.5-6.8-7.5h0ZM87.5,10.4h-2.6v19.3h5.5V13.4c0-.4,0-.8,0-1.2-.1-.4-.3-.7-.6-1-.3-.3-.6-.5-1-.6-.4-.1-.8-.2-1.2-.1h0ZM53.2,10c-2,0-3.9.6-5.5,1.7-1.6,1.1-2.9,2.7-3.6,4.5-.7,1.8-.9,3.8-.5,5.8.4,1.9,1.4,3.7,2.8,5.1,1.4,1.4,3.2,2.3,5.1,2.7,1.9.4,3.9.2,5.8-.6,1.8-.8,3.4-2,4.5-3.7,1.1-1.6,1.7-3.6,1.7-5.6,0-1.3-.2-2.7-.7-3.9-.5-1.2-1.2-2.4-2.2-3.3-.9-.9-2.1-1.7-3.3-2.2-1.2-.5-2.6-.7-3.9-.6h0ZM53.2,25.4c-2.8,0-4.7-2.2-4.7-5.3s1.9-5.3,4.7-5.3,4.7,2.2,4.7,5.3-1.9,5.3-4.7,5.3ZM171.2,10c-2,0-3.9.6-5.5,1.7-1.6,1.1-2.9,2.7-3.6,4.5-.7,1.8-.9,3.8-.5,5.8.4,1.9,1.4,3.7,2.8,5.1,1.4,1.4,3.2,2.3,5.1,2.7,1.9.4,3.9.2,5.8-.6,1.8-.8,3.4-2,4.5-3.7,1.1-1.6,1.7-3.6,1.7-5.6,0-1.3-.2-2.7-.7-3.9-.5-1.2-1.2-2.4-2.2-3.3-.9-.9-2.1-1.7-3.3-2.2-1.2-.5-2.6-.7-3.9-.6h0ZM171.2,25.4c-2.8,0-4.7-2.2-4.7-5.3s1.9-5.3,4.7-5.3,4.7,2.2,4.7,5.3-1.9,5.3-4.7,5.3ZM130,10.4c-.4,0-.9,0-1.3.3-.4.2-.7.5-1,.9v.3c-.1,0-.4-.2-.4-.2-1.4-1.2-3.2-1.8-5.1-1.7-5.1,0-8.6,3.9-8.6,9.6s3.6,9.8,8.7,9.8c1.5,0,3-.4,4.2-1.2l.4-.3v.5c0,2.6-1.7,4-4.7,4-1.3,0-2.5-.3-3.7-.7-.2-.1-.5-.2-.7-.2s-.5,0-.7.2c-.2.1-.4.3-.6.5-.2.2-.3.4-.3.7l-1.1,2.7.4.2c2.1,1,4.4,1.6,6.7,1.6,4.7,0,10.2-2.4,10.2-9.2V10.4h-2.5ZM123.4,24.5c-3,0-4.1-2.6-4.1-5.1s.3-4.7,3.8-4.7,4.1.5,4.1,4.8-2.1,5-3.8,5ZM16.9,16l-.8-.4.7-.6c.7-.6,1.3-1.4,1.7-2.3.4-.9.6-1.8.5-2.8,0-4.2-3.3-6.9-8.3-6.9h-6.4c-.7,0-1.4.3-1.9.8-.5.5-.8,1.2-.8,1.9v23.9h9.2c5.6,0,9.2-3.1,9.2-7.8,0-1.2-.2-2.3-.8-3.3-.6-1-1.4-1.9-2.4-2.5h0ZM6.6,9.3c0-1.2.5-1.8,1.7-1.9h2.3c.4,0,.8,0,1.2.2.4.1.8.4,1.1.7.3.3.5.7.7,1.1.1.4.2.8.2,1.2,0,.4,0,.9-.1,1.3-.1.4-.4.8-.7,1.1-.3.3-.7.6-1.1.7-.4.2-.8.2-1.3.2h-4v-4.6ZM11.1,25.2h-4.5v-5.4c0-1.2.5-1.7,1.4-1.9h3.1c.9,0,1.8.5,2.4,1.1.6.7,1,1.6,1,2.5s-.4,1.8-1,2.5c-.6.7-1.5,1.1-2.4,1.1ZM205.9,10.1c-1.1,0-2.3.3-3.3.8-1,.5-1.9,1.2-2.6,2.1l-.4.5-.3-.6c-.5-.9-1.3-1.7-2.2-2.2s-2-.7-3-.6c-1,0-1.9.2-2.8.6-.9.4-1.7,1-2.3,1.7l-.5.6-.2-.7c-.2-.5-.6-1-1-1.3-.5-.3-1.1-.4-1.6-.3h-2.3v19.3h5.2v-8.5c0-.8.1-1.5.3-2.2.5-2.1,1.9-4.3,4.2-4.1,1.4.1,2.1,1.2,2.1,3.4v11.4h5.3v-8.5c0-.8,0-1.6.3-2.3.4-2,1.9-4,4.1-4s2.2.9,2.2,3.4v8.6c0,1.9.9,2.8,2.8,2.8h2.5v-12.3c0-4.9-2.2-7.4-6.4-7.4ZM158.1,23.1c-1.4,1.4-3.3,2.3-5.2,2.5-.7,0-1.4,0-2.1-.3-.7-.3-1.3-.7-1.8-1.2-.5-.5-.9-1.1-1.2-1.8-.3-.7-.4-1.4-.3-2.1,0-.7,0-1.4.3-2.1.2-.7.6-1.3,1.1-1.8.5-.5,1.1-.9,1.8-1.2.7-.3,1.4-.4,2.1-.4,1,0,2.1.4,2.3.9h0c.1.5.4.9.7,1.1.3.3.8.4,1.2.4h2.9v-2.5c0-3.3-4.2-4.5-7-4.5-6.1,0-10.5,4.3-10.5,10.1s4.4,10.1,10.4,10.1c1.5,0,3.1-.3,4.5-1,1.4-.6,2.7-1.5,3.7-2.7l-2.2-3.8-.4.3Z" fill="#fff"/>
</svg>