<?xml version="1.0" encoding="UTF-8"?>
<svg id="Layer_1" xmlns="http://www.w3.org/2000/svg" xmlns:xlink="http://www.w3.org/1999/xlink" version="1.1" viewBox="0 0 214 47">
  <!-- Generator: Adobe Illustrator 29.1.0, SVG Export Plug-In . SVG Version: 2.1.0 Build 142)  -->
  <defs>
    <clipPath id="clippath">
      <rect width="213.4" height="46.2" fill="none"/>
    </clipPath>
  </defs>
  <g clip-path="url(#clippath)">
    <g>
      <path d="M2.8,3.4L8.2,0v14.3l6.9-4.9,11.2,6.8c.7.4,1.3,1.1,1.8,1.8.4.8.6,1.6.6,2.5v9.3c0,1.6-.6,3.2-1.8,4.4-1.1,1.2-2.7,1.8-4.3,1.8H2.8v-9.4l5.4-3.4v7.3h12.6c.6,0,1.2-.3,1.7-.7.4-.4.7-1,.7-1.7v-6.4c0-.4-.1-.8-.3-1.2-.2-.4-.5-.7-.9-.9l-6.8-3.7L0,25.8v-6.6l2.8-1.9V3.4Z" fill="#fff"/>
      <path d="M46.8,17.2c1.6,0,3.2.4,4.6,1.2,1.4.8,2.5,2,3.2,3.4.8,1.5,1.1,3.1,1.1,4.8,0,1.7-.4,3.3-1.1,4.8-.7,1.4-1.8,2.6-3.2,3.4-1.4.8-3,1.3-4.6,1.2-1.1,0-2.2-.2-3.2-.7-1-.4-1.8-1-2.5-1.7v1.9h-3.7V11.7l3.7-2.1v9.9c.7-.7,1.6-1.3,2.5-1.7,1-.4,2.1-.6,3.2-.6M51.4,29.8c.5-1,.7-2,.7-3.1s-.2-2.1-.7-3.1c-.4-.9-1.1-1.7-2-2.3-.9-.6-1.9-.9-3-.8-1,0-2.1.3-2.9.8-.9.5-1.6,1.3-2.1,2.2-.5,1-.7,2.1-.7,3.2s.3,2.2.7,3.2c.5.9,1.2,1.7,2.1,2.2.9.5,1.9.8,2.9.8,1.1,0,2.1-.3,3-.8.8-.6,1.5-1.3,2-2.3" fill="#fff"/>
      <path d="M62.2,20.1c.5-.7,1.2-1.3,2-1.7.9-.4,1.9-.6,2.9-.6.7,0,1.4.1,2,.3l-.4,3.1c-.5-.1-1.1-.2-1.6-.2-1.4,0-2.6.5-3.5,1.4-.9.9-1.3,2.4-1.3,4.3v9.4h-3.6v-18h3.7v2Z" fill="#fff"/>
      <path d="M85.9,33.1c-1.8,2.1-4.3,3.2-7.5,3.2-1.7,0-3.4-.4-4.8-1.2-1.4-.8-2.5-2-3.3-3.4-.8-1.5-1.2-3.1-1.2-4.8,0-1.7.4-3.3,1.1-4.8.7-1.4,1.8-2.6,3.2-3.4,1.4-.8,2.9-1.2,4.5-1.2s3.1.4,4.5,1.2c1.4.9,2.5,2.1,3.2,3.5.8,1.5,1.2,3.3,1.2,5.3,0,.3,0,.6,0,.8h-13.9c.2,1.3.9,2.6,1.9,3.5,1,.9,2.2,1.4,3.7,1.4s3.7-.8,5.1-2.2l2.4,2.2ZM72.8,25.2h10.1c-.1-1.3-.7-2.5-1.7-3.5-.9-.9-2.1-1.3-3.3-1.3s-2.4.5-3.3,1.3c-.9.9-1.5,2-1.7,3.5Z" fill="#fff"/>
      <path d="M105.2,33.1c-1.8,2.1-4.3,3.2-7.5,3.2-1.7,0-3.4-.4-4.8-1.2-1.4-.8-2.5-2-3.3-3.4-.8-1.5-1.2-3.1-1.2-4.8,0-1.7.4-3.3,1.1-4.8.7-1.4,1.8-2.6,3.2-3.4,1.4-.8,2.9-1.2,4.5-1.2s3.1.4,4.5,1.2c1.4.9,2.5,2.1,3.2,3.5.8,1.5,1.2,3.3,1.2,5.3,0,.3,0,.6,0,.8h-13.9c.2,1.3.9,2.6,1.9,3.5,1,.9,2.2,1.4,3.7,1.4.9,0,1.9-.2,2.8-.6.9-.4,1.6-.9,2.3-1.7l2.5,2.2ZM92.2,25.2h10.1c-.1-1.3-.7-2.5-1.7-3.5-.9-.9-2.1-1.3-3.3-1.3s-2.4.5-3.3,1.3c-.9.9-1.5,2-1.7,3.5Z" fill="#fff"/>
      <path d="M116.8,21.1h-9.8v-3.1h16.3l-10.8,14.9h10.2v3.1h-16.8l10.8-14.9Z" fill="#fff"/>
      <path d="M140.3,33.1c-1.8,2.1-4.3,3.2-7.5,3.2-1.7,0-3.4-.4-4.8-1.2-1.4-.8-2.5-2-3.3-3.4-.8-1.5-1.2-3.1-1.2-4.8,0-1.7.4-3.3,1.1-4.8.7-1.4,1.8-2.6,3.2-3.4,1.4-.8,2.9-1.2,4.5-1.2s3.1.4,4.5,1.2c1.4.9,2.5,2.1,3.2,3.5.8,1.5,1.2,3.3,1.2,5.3,0,.3,0,.6,0,.8h-13.9c.2,1.3.9,2.6,1.9,3.5,1,.9,2.2,1.4,3.7,1.4,1,0,1.9-.2,2.8-.5.9-.4,1.7-.9,2.3-1.7l2.5,2.2ZM127.2,25.2h10.1c-.1-1.3-.7-2.5-1.7-3.4-.9-.9-2.1-1.3-3.3-1.3s-2.4.5-3.3,1.3c-.9.9-1.5,2.1-1.7,3.4" fill="#fff"/>
      <path d="M150.5,36.5l-10.1-19.2h4l6.2,12.4,6.6-12.7,6.6,12.8,6.2-12.5h4l-10.2,19.2-6.6-12.9-6.7,12.9Z" fill="#fff"/>
      <path d="M188.1,35.7v-1.9c-.7.7-1.6,1.3-2.6,1.7-1,.4-2.1.7-3.2.7-1.7,0-3.3-.4-4.6-1.2-1.3-.8-2.5-2-3.2-3.4-.8-1.5-1.1-3.1-1.1-4.8,0-1.7.4-3.3,1.1-4.8.7-1.4,1.9-2.6,3.2-3.4,1.4-.8,2.9-1.2,4.5-1.2,1.1,0,2.2.2,3.2.7,1,.4,1.8,1,2.6,1.7v-1.9h3.6v18h-3.6,0ZM187.7,29.9c.5-1,.8-2.1.7-3.2,0-1.1-.3-2.2-.7-3.2-.5-.9-1.2-1.7-2.1-2.2-.9-.5-1.9-.8-2.9-.8-1.1,0-2.1.3-3,.8-.9.5-1.5,1.3-2,2.3-.5,1-.7,2-.7,3.1s.2,2.1.7,3.1c.4.9,1.1,1.7,2,2.3.9.6,1.9.9,3,.8,1,0,2.1-.3,2.9-.8.9-.5,1.6-1.3,2.1-2.2" fill="#fff"/>
      <path d="M209.6,17.7h3.8l-15,28.5h-3.8l6.9-12.8-8.3-15.7h4l6.2,12.2,6.3-12.2Z" fill="#fff"/>
    </g>
  </g>
</svg>