<?xml version="1.0" encoding="UTF-8"?>
<svg id="Layer_1" xmlns="http://www.w3.org/2000/svg" version="1.1" viewBox="0 0 917.8 251">
  <!-- Generator: Adobe Illustrator 29.1.0, SVG Export Plug-In . SVG Version: 2.1.0 Build 142)  -->
  <path d="M337.9,202c-43.6,0-72.4-28.8-72.4-72.8s30.2-72.8,74-72.8,38.2,7.4,52,21.6l-15,15c-9.4-9.4-23.6-15-37.2-15-29.8,0-50.4,20.6-50.4,51.2s19.2,51.2,49,51.2,25.4-3.6,35.4-11.4v-28.8h-39.2v-20.6h60.8v59.4c-15.6,15.6-34,23-57,23h0Z" fill="#fff"/>
  <path d="M452.4,201.2c-25.2,0-41.6-18-41.6-46.2v-54.6h22.4v53.2c0,17.4,8.8,27.4,23.2,27.4s27.4-12,27.4-28.6v-52h22.4v98.8h-20l-.2-12.8c-8.4,9.8-20,14.8-33.6,14.8Z" fill="#fff"/>
  <path d="M572.3,202c-32.6,0-53.6-20.6-53.6-52.2s20.6-51.4,51.2-51.4,54,22.8,50.8,59.8h-79c1.8,14.4,13.8,23.6,31.2,23.6s22.4-4,28.4-10.2l13.6,13.2c-9.8,10.6-25.6,17.2-42.6,17.2h0ZM541.9,140.8h57.4c-1.6-14-12.4-23-28.8-23s-25.8,8.4-28.6,23Z" fill="#fff"/>
  <path d="M673.7,201.6c-16.6,0-31.4-4.8-44.6-14.6l10.4-16.2c8.8,7,21.8,11,34.8,11s19.8-4,19.8-11.2-6.4-10.4-21.6-12c-25.8-2.4-40.4-13.2-40.4-30.4s17.2-30.2,42.8-30.2,28.2,3.8,39.2,11.4l-9.8,16c-8.8-5.6-18.2-8.4-28.4-8.4s-21.8,4-21.8,11.2,5.8,9.8,20.2,11.4c29.2,3.2,42,12.6,42,31.2s-17,30.8-42.6,30.8h0Z" fill="#fff"/>
  <path d="M777.2,200.6c-20.4,0-32.4-11.8-32.4-35.4v-45.8h-18.6v-19h18.6v-25.8l22.2-2.4v28.2h28.4v19h-28.4v45.8c0,10,4.6,15.6,13.8,15.6s8.6-1.2,12.4-3l6.2,18c-7.6,3.4-14,4.8-22.2,4.8Z" fill="#fff"/>
  <path d="M827.1,244.8l20-46.2-39-98.2h24l17.2,45,10.2,28.4,11.4-28.4,18.6-45h24l-62,144.4h-24.4,0Z" fill="#fff"/>
  <path d="M102.1,9.5c6.6-4.4,15.2-4.4,21.8.1l86.7,60.4c5.1,3.6,8.2,9.5,8.2,15.7v133.3h-23.1v-127.3c0-2.4-1.2-4.7-3.2-6.1l-75.4-52.6c-2.5-1.8-5.9-1.8-8.4,0L30.6,85.7c-2.1,1.4-3.3,3.7-3.3,6.2v98.5c0,3.1,2.5,5.6,5.6,5.6h108.3c3.1,0,5.6-2.5,5.6-5.6v-74.6c0-2.5-1.3-4.9-3.4-6.3l-25.6-16.6c-3-1.9-6.9-2-10-.1l-27.1,16.8c-2.2,1.4-3.5,3.8-3.5,6.3v51.4h-23.1v-57.7c0-6.6,3.4-12.8,9.1-16.3l39.6-24.5c6.3-3.9,14.3-3.8,20.6.2l37.8,24.5c5.5,3.5,8.8,9.6,8.8,16.1v90.3c0,10.6-8.6,19.2-19.2,19.2H23.5c-10.6,0-19.2-8.6-19.2-19.2v-114c0-6.4,3.2-12.3,8.4-15.9L102.1,9.5Z" fill="#fff" fill-rule="evenodd"/>
</svg>