<?xml version="1.0" encoding="UTF-8"?>
<svg id="Layer_1" xmlns="http://www.w3.org/2000/svg" version="1.1" viewBox="0 0 1667.1 466.8">
  <!-- Generator: Adobe Illustrator 29.1.0, SVG Export Plug-In . SVG Version: 2.1.0 Build 142)  -->
  <g>
    <path d="M527.7,142.1h75.6c19.3,0,34.3,4.8,45,14.1s16,22.7,16,40.1-5.3,30.4-16,40.1c-10.7,9.5-25.7,14.4-45,14.4h-48.9v72.3h-26.7v-181h0ZM600.4,229.4c25.5,0,38.3-11.1,38.3-33.1s-12.8-32.9-38.3-32.9h-46.1v66h46.1ZM770.3,216.6l-15.8,1.6c-12.5,1.2-21.3,4.9-26.7,11.3-5.5,6.3-8.1,14.4-8.1,24.1v69.5h-26.2v-125.2h25.3v21.8c6.7-14.8,20.4-22.9,41.2-24.4l8.6-.5,1.8,21.8v.2h0v-.2ZM788,197.9h26.2v125.2h-26.2v-125.2h0ZM816.2,142v26.9h-30.1v-26.9h30.1ZM906.1,324.9c-12.8,0-23.9-2.6-33.2-7.9s-16.7-12.8-21.8-22.5-7.6-20.9-7.6-34,2.6-24.4,7.9-34.3c5.3-9.9,12.7-17.6,22.3-23,9.5-5.4,20.8-8.3,33.6-8.3s17.2,1.4,25.5,4.4,15,6.9,20,11.8l-8.1,18.5c-11.4-9.3-23.2-13.9-35.4-13.9s-21.5,3.9-28.3,11.6-10.2,18.8-10.2,32.9,3.3,24.8,10,32.4,16.2,11.4,28.5,11.4,24.1-4.6,35.4-13.9l8.1,18.6c-5.5,4.9-12.5,8.8-20.8,11.6s-16.9,4.2-25.9,4.2l-.2.4h.2ZM1083.9,264.9h-89.4c1.9,26.6,15.1,39.8,39.9,39.8s27.6-4.8,39.4-14.1l8.1,18.3c-5.8,4.9-13.2,9-21.8,11.8-8.6,3-17.4,4.4-26.4,4.4-20.2,0-36.1-5.8-47.7-17.2-11.6-11.4-17.4-27.3-17.4-47.5s2.6-24.3,7.6-34.1c5.1-9.9,12.3-17.6,21.5-23s19.7-8.3,31.5-8.3c17.1,0,30.4,5.4,40.3,16.4,9.7,10.9,14.6,26,14.6,45.4v8.3h-.2v-.2ZM1029.6,213.7c-10,0-17.9,3.2-23.9,9.3-6,6.2-9.5,15.1-10.7,26.7h66.5c-.5-11.6-3.5-20.6-9-26.7s-13-9.3-22.9-9.3h0Z" fill="#fff"/>
    <path d="M1303.5,194.6c16.9,0,29.6,4.2,37.6,12.7,8.3,8.4,12.3,21.1,12.3,38.3v77.6h-25.2v-20.8c-3.3,7.4-8.1,13-14.6,16.9s-14.1,5.8-22.7,5.8-15.8-1.6-22.9-5.1c-6.9-3.3-12.3-7.9-16.2-14.1-3.9-6-5.8-12.7-5.8-20s2.5-16.2,7.2-21.5,12.7-9,23.6-11.3,26-3.3,45.2-3.3h6v-7.4c0-9.7-2.1-16.5-6.2-20.8s-10.7-6.5-19.9-6.5c-14.4,0-28.7,4.4-43.1,13l-7.7-18.3c6.7-4.6,14.9-8.3,24.4-11.3,9.5-2.8,18.8-4.2,27.6-4.2l.2.2h.2ZM1415.5,142v76.3c3.9-7.6,9.3-13.4,16.5-17.4,7.2-4.1,15.7-6.2,25.2-6.2s20.8,2.6,29.2,7.9,15.1,12.8,19.9,22.7,7,21.1,7,34.1-2.3,24.3-7,34.1-11.4,17.6-19.9,23c-8.6,5.5-18.3,8.3-29.2,8.3s-17.9-1.9-25.2-6c-7.2-4-12.8-9.9-16.5-17.4v21.6h-26.2v-181.2h26.2v.2ZM1589.1,194.6c9,0,17.6,1.4,25.7,4.2s15.1,6.9,20.9,12l-8.1,18.3c-12.5-9.9-25.3-14.6-38.7-14.6s-14.2,1.6-18.8,4.6c-4.6,3.2-6.9,7.2-6.9,12.7s1.4,7.7,4.2,10.4c2.8,2.6,7.4,4.8,13.5,6l21.5,4.9c12.3,2.8,21.3,7,26.9,12.7,5.6,5.8,8.6,13.2,8.6,22.5s-4.6,20.2-13.9,26.9c-9.3,6.5-21.6,9.9-37.5,9.9s-39.4-5.3-52.6-16l8.1-18.8c13,9.9,28.2,15,45.4,15s14.9-1.4,19.5-4.2c4.6-2.8,6.7-6.9,6.7-12s-1.6-7.9-4.6-10.5-8.3-4.8-15.7-6.5l-20.9-4.6c-11.3-2.6-19.7-6.7-25.3-12.7-5.6-5.8-8.6-13.2-8.6-22.2s4.6-20.4,13.9-27.4,21.5-10.6,36.4-10.6l.2.2h0v-.2ZM1138.6,142v159h88.7v22.2h-115.4v-181.2h26.7ZM1323.5,264.6c-13.5,0-23.9.5-31.1,1.8-7.2,1.2-12.5,3.2-15.5,6-3.2,2.8-4.8,6.9-4.8,12.1s2.3,11.1,6.7,15c4.4,4,10,6,16.9,6s17.2-3.2,23.4-9.7c6-6.5,9.2-14.6,9.2-24.8v-6.7h-4.8v.4h0ZM1451,215.5c-11.4,0-20.2,3.9-26.2,11.6-6.2,7.7-9.2,18.6-9.2,32.9s3,25.1,9.2,32.9c6.2,7.7,14.9,11.6,26.2,11.6s20.1-3.9,26.4-11.8,9.5-19,9.5-33.1-3.2-24.8-9.3-32.5c-6.2-7.6-14.9-11.4-26.4-11.4l-.2-.2h0Z" fill="#fff"/>
    <path d="M232.2,22.4C115.6,22.4,21.1,116.8,21.1,233.4s94.5,211.1,211.1,211.1,211.1-94.5,211.1-211.1S348.8,22.4,232.2,22.4ZM221.1,297.5l-29.9,29.9-94.5-94.5,94.5-94.5,29.9,29.9-64.6,64.6,64.6,64.6ZM272.6,327.4l-29.9-29.9,64.6-64.6-64.6-64.6,29.9-29.9,94.5,94.5-94.5,94.5Z" fill="#fff"/>
  </g>
  <polygon points="221.1 297.5 191.2 327.4 96.7 232.9 191.2 138.4 221.1 168.4 156.5 232.9 221.1 297.5" display="none" fill="#fff"/>
  <polygon points="272.6 327.4 242.7 297.5 307.3 232.9 242.7 168.4 272.6 138.4 367.1 232.9 272.6 327.4" display="none" fill="#fff"/>
</svg>